HIERARCHY
ROOT Hips
{
 OFFSET 0.000000 0.000000 0.000000
 CHANNELS 6 Xposition Yposition Zposition Yrotation Xrotation Zrotation
 JOINT Chest
 {
  OFFSET 0.000000 16.280000 -0.014500
  CHANNELS 3 Yrotation Xrotation Zrotation
  JOINT Chest2
  {
   OFFSET 0.000000 10.601900 0.029500
   CHANNELS 3 Yrotation Xrotation Zrotation
   JOINT Chest3
   {
    OFFSET 0.000000 10.554800 0.000000
    CHANNELS 3 Yrotation Xrotation Zrotation
    JOINT Chest4
    {
     OFFSET 0.000000 10.544000 0.000000
     CHANNELS 3 Yrotation Xrotation Zrotation
     JOINT Neck
     {
      OFFSET 0.000000 16.186500 0.000000
      CHANNELS 3 Yrotation Xrotation Zrotation
      JOINT Head
      {
       OFFSET 0.000000 9.876700 0.062400
       CHANNELS 3 Yrotation Xrotation Zrotation
       End Site
       {
        OFFSET 0.000000 18.635100 0.032900
       }
      }
     }
     JOINT RightCollar
     {
      OFFSET -3.550000 10.761000 0.000000
      CHANNELS 3 Yrotation Xrotation Zrotation
      JOINT RightShoulder
      {
       OFFSET -16.915100 0.000000 0.000000
       CHANNELS 3 Yrotation Xrotation Zrotation
       JOINT RightElbow
       {
        OFFSET 0.000000 -31.241900 0.000000
        CHANNELS 3 Yrotation Xrotation Zrotation
        JOINT RightWrist
        {
         OFFSET 0.000000 -25.690800 0.013700
         CHANNELS 3 Yrotation Xrotation Zrotation
         End Site
         {
          OFFSET 0.000000 -19.336200 0.000000
         }
        }
       }
      }
     }
     JOINT LeftCollar
     {
      OFFSET 3.550000 10.761000 0.000000
      CHANNELS 3 Yrotation Xrotation Zrotation
      JOINT LeftShoulder
      {
       OFFSET 16.915100 0.000000 0.000000
       CHANNELS 3 Yrotation Xrotation Zrotation
       JOINT LeftElbow
       {
        OFFSET 0.000000 -31.241900 0.000000
        CHANNELS 3 Yrotation Xrotation Zrotation
        JOINT LeftWrist
        {
         OFFSET 0.000000 -25.690800 0.013700
         CHANNELS 3 Yrotation Xrotation Zrotation
         End Site
         {
          OFFSET 0.000000 -19.336200 0.000000
         }
        }
       }
      }
     }
    }
   }
  }
 }
 JOINT RightHip
 {
  OFFSET -13.350800 0.071600 0.007200
  CHANNELS 3 Yrotation Xrotation Zrotation
  JOINT RightKnee
  {
   OFFSET 0.000000 -49.946400 0.002700
   CHANNELS 3 Yrotation Xrotation Zrotation
   JOINT RightAnkle
   {
    OFFSET 0.000000 -42.233900 0.021900
    CHANNELS 3 Yrotation Xrotation Zrotation
    JOINT RightToe
    {
     OFFSET 0.000000 -11.862800 19.724700
     CHANNELS 3 Yrotation Xrotation Zrotation
     End Site
     {
      OFFSET 0.000000 -1.715400 7.529500
     }
    }
   }
  }
 }
 JOINT LeftHip
 {
  OFFSET 13.350800 0.071600 0.007200
  CHANNELS 3 Yrotation Xrotation Zrotation
  JOINT LeftKnee
  {
   OFFSET 0.000000 -49.946400 0.002700
   CHANNELS 3 Yrotation Xrotation Zrotation
   JOINT LeftAnkle
   {
    OFFSET 0.000000 -42.233900 0.021900
    CHANNELS 3 Yrotation Xrotation Zrotation
    JOINT LeftToe
    {
     OFFSET 0.000000 -11.862800 19.724700
     CHANNELS 3 Yrotation Xrotation Zrotation
     End Site
     {
      OFFSET 0.000000 -1.715400 7.529500
     }
    }
   }
  }
 }
}
MOTION
Frames: 9
Frame Time: 0.008333
0.000000 103.775900 0.000000 0.000000 -5.767877 0.000000 0.000000 11.653817 0.000000 0.000000 -5.885947 0.000000 0.000000 -0.000000 0.000000 0.000000 -0.000000 0.000000 0.000000 12.528835 0.000000 0.000000 0.711642 0.000000 0.000000 -0.000000 0.000000 0.000000 0.000000 -90.000000 0.000000 -2.309062 0.000000 0.000000 2.309062 0.000000 0.000000 -0.000000 0.000000 0.000000 -0.000000 90.000000 0.000000 -2.309062 0.000000 0.000000 2.309062 0.000000 0.000000 8.520406 0.000000 0.000000 1.905762 0.000000 -0.000000 -4.658285 0.000000 0.000000 -0.000000 0.000000 0.000000 8.520406 0.000000 0.000000 1.905762 0.000000 -0.000000 -4.658285 0.000000 0.000000 -0.000000 0.000000
44.083659 153.549519 41.297846 -178.373612 -18.900116 -3.844596 -2.690362 9.421134 1.936931 -0.161156 0.565572 0.157262 -0.279359 0.977986 0.266434 -2.320441 8.725364 2.250915 -4.232433 20.173733 0.872623 -4.740518 -4.207003 1.914210 2.832025 7.529139 -4.410555 16.495568 -14.173482 -5.877874 34.497080 -36.592829 -24.647652 -9.514172 -12.802977 -23.503731 -3.792201 10.943486 2.227096 -15.750791 -17.231997 1.106594 -53.404514 -32.137946 40.459523 -13.665353 -0.308209 18.505926 1.183401 -50.758191 -5.457437 -158.087687 63.559589 -149.850256 -4.085013 -34.580308 4.717836 0.218775 -0.336380 0.132930 -8.899203 -47.550929 6.214206 161.751791 66.667592 159.075488 -0.187771 -37.805955 -3.897534 0.199129 -1.500952 0.114433
48.748601 146.162250 40.803710 -178.446247 -18.888739 -3.993383 -2.596625 9.414383 2.101862 -0.160523 0.564515 0.161403 -0.277713 0.977950 0.270636 -2.321957 8.725846 2.248726 -4.233393 20.168381 0.868184 -4.739502 -4.212227 1.911803 2.835519 7.527759 -4.409635 16.491255 -14.166026 -5.881797 34.502334 -36.592676 -24.650255 -9.518462 -12.807881 -23.503718 -3.788053 10.946485 2.224641 -15.750753 -17.234256 1.106176 -53.412405 -32.154368 40.474869 -13.673541 -0.297435 18.499199 1.040843 -50.792148 -5.182928 -158.104221 63.534590 -149.864171 -3.977700 -34.716218 4.709945 0.124229 -0.219416 0.074699 -9.017264 -47.520408 6.472997 161.742392 66.706047 159.068858 -0.086868 -37.671311 -3.905326 0.119193 0.207529 0.071709
52.589349 140.079034 40.395734 -178.491298 -18.882623 -4.116799 -2.531680 9.412053 2.239689 -0.161266 0.565965 0.155132 -0.278356 0.977044 0.275042 -2.321463 8.725111 2.250177 -4.232663 20.165760 0.866952 -4.741484 -4.234070 1.899339 2.838196 7.527333 -4.407583 16.490777 -14.161077 -5.886028 34.505163 -36.590624 -24.654260 -9.524625 -12.811899 -23.505089 -3.784861 10.950277 2.220126 -15.752536 -17.236001 1.111736 -53.415604 -32.156410 40.478994 -13.670555 -0.300991 18.503742 0.908748 -50.815358 -4.956870 -158.114416 63.517651 -149.873125 -3.906528 -34.822191 4.702761 0.058766 -0.125525 0.035334 -9.123867 -47.490600 6.680525 161.730251 66.734812 159.059512 -0.016604 -37.567144 -3.911437 0.057037 0.119160 0.034313
55.359111 135.685874 40.099730 -178.503878 -18.882108 -4.197104 -2.505312 9.414955 2.322617 -0.161474 0.566624 0.154759 -0.278205 0.977977 0.269783 -2.322414 8.724171 2.250795 -4.230123 20.162924 0.870574 -4.742444 -4.244469 1.893365 2.834022 7.526408 -4.403508 16.498428 -14.158777 -5.887744 34.505731 -36.590720 -24.656330 -9.528277 -12.812710 -23.507866 -3.781331 10.952021 2.218698 -15.752417 -17.235655 1.113805 -53.423500 -32.154989 40.487823 -13.666686 -0.295960 18.510825 0.814402 -50.829519 -4.818283 -158.122296 63.495592 -149.885046 -3.864001 -34.894840 4.705419 0.019595 -0.065637 0.011782 -9.203077 -47.467059 6.807014 161.713813 66.757252 159.043298 0.018900 -37.487040 -3.909398 0.022737 0.059687 0.013678
57.108783 132.911266 39.913063 -178.506061 -18.880563 -4.249669 -2.495094 9.415596 2.375004 -0.160705 0.567573 0.155067 -0.277541 0.979440 0.268494 -2.326406 8.726305 2.239783 -4.225624 20.154127 0.875554 -4.740945 -4.252131 1.891212 2.840229 7.522278 -4.394815 16.496664 -14.157418 -5.886748 34.506220 -36.592405 -24.656494 -9.529946 -12.813578 -23.509006 -3.775143 10.949075 2.227304 -15.752432 -17.231075 1.113700 -53.427584 -32.158074 40.504252 -13.669762 -0.299145 18.506335 0.752662 -50.837869 -4.731724 -158.114198 63.481874 -149.873674 -3.841906 -34.941877 4.702917 0.005114 -0.024019 0.003075 -9.258780 -47.452919 6.886515 161.702705 66.771862 159.032629 0.038010 -37.437550 -3.910821 0.004724 0.020175 0.002842
58.066463 131.384843 39.810985 -178.497600 -18.877449 -4.263861 -2.497558 9.418655 2.384085 -0.163580 0.564216 0.156759 -0.277393 0.978990 0.269042 -2.327618 8.726300 2.234379 -4.227404 20.148561 0.872663 -4.736721 -4.259616 1.888985 2.841791 7.519903 -4.391361 16.495958 -14.155881 -5.885218 34.506022 -36.593654 -24.655981 -9.530737 -12.819320 -23.512741 -3.773293 10.948686 2.229219 -15.750065 -17.228525 1.108879 -53.431136 -32.159035 40.517060 -13.679419 -0.300616 18.501621 0.731537 -50.843682 -4.712133 -158.118495 63.480708 -149.879106 -3.844180 -34.952980 4.707607 0.001255 -0.011937 0.000755 -9.279593 -47.450966 6.903689 161.697006 66.782609 159.026939 0.040482 -37.416488 -3.907236 0.002857 0.010979 0.001718
58.522917 130.657775 39.763674 -178.498178 -18.872606 -4.269000 -2.495813 9.414972 2.388339 -0.161944 0.565289 0.158155 -0.278477 0.977842 0.268877 -2.329366 8.726173 2.228350 -4.225902 20.143158 0.871636 -4.734934 -4.259923 1.890429 2.851510 7.520263 -4.393295 16.486664 -14.157261 -5.877878 34.505446 -36.586341 -24.658927 -9.533530 -12.821782 -23.507889 -3.773223 10.948703 2.227453 -15.742839 -17.223235 1.108129 -53.440226 -32.161642 40.529787 -13.681470 -0.297986 18.496599 0.722957 -50.853749 -4.700767 -158.095222 63.482263 -149.856307 -3.839342 -34.947767 4.706238 0.001684 -0.005936 0.001013 -9.288035 -47.454624 6.910915 161.689488 66.786770 159.016300 0.045065 -37.403232 -3.898675 0.000299 0.007146 0.000180
58.709802 130.360679 39.744323 -178.496248 -18.872354 -4.271002 -2.498286 9.415230 2.387505 -0.161645 0.565730 0.155640 -0.277017 0.976640 0.270229 -2.329625 8.728971 2.226216 -4.225004 20.134163 0.861632 -4.732546 -4.257015 1.899357 2.857928 7.518802 -4.391829 16.477336 -14.152901 -5.874801 34.509730 -36.581638 -24.661479 -9.525903 -12.822946 -23.509510 -3.775971 10.947455 2.225671 -15.743901 -17.220485 1.105814 -53.452746 -32.165862 40.545430 -13.679364 -0.281981 18.493794 0.722633 -50.855585 -4.699796 -158.089576 63.482869 -149.847700 -3.839785 -34.945384 4.706226 0.002260 -0.003534 0.001359 -9.296832 -47.453004 6.915867 161.689023 66.789302 159.012419 0.045951 -37.398988 -3.898054 -0.000114 0.005625 -0.000069
